<mxfile host="Electron" modified="2023-08-16T08:56:01.930Z" agent="Mozilla/5.0 (Windows NT 10.0; Win64; x64) AppleWebKit/537.36 (KHTML, like Gecko) draw.io/21.6.5 Chrome/114.0.5735.243 Electron/25.3.1 Safari/537.36" etag="ym1DMUsd8mSjFNf9ogyY" version="21.6.5" type="device">
  <diagram name="Page-1" id="2wyYCIUAx08X3aRnqJmo">
    <mxGraphModel dx="780" dy="504" grid="0" gridSize="10" guides="1" tooltips="1" connect="1" arrows="1" fold="1" page="1" pageScale="1" pageWidth="850" pageHeight="1100" math="0" shadow="0">
      <root>
        <mxCell id="0" />
        <mxCell id="1" parent="0" />
        <mxCell id="Jpet9I2pC73P3KAdQ3ND-1" value="" style="endArrow=classic;html=1;rounded=0;fillColor=#1ba1e2;strokeColor=#66B2FF;strokeWidth=4;" edge="1" parent="1">
          <mxGeometry width="50" height="50" relative="1" as="geometry">
            <mxPoint x="81" y="100" as="sourcePoint" />
            <mxPoint x="638" y="100" as="targetPoint" />
          </mxGeometry>
        </mxCell>
        <mxCell id="Jpet9I2pC73P3KAdQ3ND-4" value="" style="edgeStyle=entityRelationEdgeStyle;startArrow=none;endArrow=none;segment=10;curved=1;sourcePerimeterSpacing=0;targetPerimeterSpacing=0;rounded=0;strokeColor=#F04B0E;strokeWidth=4;" edge="1" parent="1">
          <mxGeometry relative="1" as="geometry">
            <mxPoint x="161" y="100" as="sourcePoint" />
            <mxPoint x="206" y="80" as="targetPoint" />
          </mxGeometry>
        </mxCell>
        <mxCell id="Jpet9I2pC73P3KAdQ3ND-5" value="" style="edgeStyle=entityRelationEdgeStyle;startArrow=none;endArrow=none;segment=10;curved=1;sourcePerimeterSpacing=0;targetPerimeterSpacing=0;rounded=0;exitX=1;exitY=1;exitDx=0;exitDy=0;strokeColor=#F04B0E;strokeWidth=4;" edge="1" parent="1">
          <mxGeometry relative="1" as="geometry">
            <mxPoint x="278" y="80" as="sourcePoint" />
            <mxPoint x="323" y="100" as="targetPoint" />
          </mxGeometry>
        </mxCell>
        <mxCell id="Jpet9I2pC73P3KAdQ3ND-13" value="" style="endArrow=none;html=1;rounded=0;strokeColor=#F04B0E;strokeWidth=4;" edge="1" parent="1">
          <mxGeometry width="50" height="50" relative="1" as="geometry">
            <mxPoint x="202" y="80" as="sourcePoint" />
            <mxPoint x="282" y="80" as="targetPoint" />
          </mxGeometry>
        </mxCell>
        <mxCell id="Jpet9I2pC73P3KAdQ3ND-22" value="" style="endArrow=classic;html=1;rounded=0;fillColor=#60a917;strokeColor=#97D077;strokeWidth=4;" edge="1" parent="1">
          <mxGeometry width="50" height="50" relative="1" as="geometry">
            <mxPoint x="161" y="180" as="sourcePoint" />
            <mxPoint x="629" y="180" as="targetPoint" />
          </mxGeometry>
        </mxCell>
        <mxCell id="Jpet9I2pC73P3KAdQ3ND-24" value="" style="edgeStyle=entityRelationEdgeStyle;startArrow=none;endArrow=none;segment=10;curved=1;sourcePerimeterSpacing=0;targetPerimeterSpacing=0;rounded=0;strokeColor=#10739e;strokeWidth=4;fillColor=#b1ddf0;" edge="1" parent="1">
          <mxGeometry relative="1" as="geometry">
            <mxPoint x="512" y="240" as="sourcePoint" />
            <mxPoint x="557" y="180" as="targetPoint" />
          </mxGeometry>
        </mxCell>
        <mxCell id="Jpet9I2pC73P3KAdQ3ND-25" value="" style="edgeStyle=entityRelationEdgeStyle;startArrow=none;endArrow=none;segment=10;curved=1;sourcePerimeterSpacing=0;targetPerimeterSpacing=0;rounded=0;exitX=1;exitY=1;exitDx=0;exitDy=0;strokeColor=#97D077;strokeWidth=4;fillColor=#60a917;" edge="1" parent="1">
          <mxGeometry relative="1" as="geometry">
            <mxPoint x="121" y="100" as="sourcePoint" />
            <mxPoint x="161" y="180" as="targetPoint" />
            <Array as="points">
              <mxPoint x="64" y="-10" />
            </Array>
          </mxGeometry>
        </mxCell>
        <mxCell id="Jpet9I2pC73P3KAdQ3ND-26" value="" style="endArrow=none;html=1;rounded=0;strokeColor=#10739e;strokeWidth=4;fillColor=#b1ddf0;" edge="1" parent="1">
          <mxGeometry width="50" height="50" relative="1" as="geometry">
            <mxPoint x="220" y="240" as="sourcePoint" />
            <mxPoint x="512" y="240" as="targetPoint" />
          </mxGeometry>
        </mxCell>
        <mxCell id="Jpet9I2pC73P3KAdQ3ND-28" value="" style="edgeStyle=entityRelationEdgeStyle;startArrow=none;endArrow=none;segment=10;curved=1;sourcePerimeterSpacing=0;targetPerimeterSpacing=0;rounded=0;exitX=1;exitY=1;exitDx=0;exitDy=0;strokeColor=#0e8088;strokeWidth=4;fillColor=#b0e3e6;" edge="1" parent="1">
          <mxGeometry relative="1" as="geometry">
            <mxPoint x="180" y="180" as="sourcePoint" />
            <mxPoint x="220" y="240" as="targetPoint" />
            <Array as="points">
              <mxPoint x="123" y="70" />
            </Array>
          </mxGeometry>
        </mxCell>
        <mxCell id="Jpet9I2pC73P3KAdQ3ND-29" value="" style="edgeStyle=entityRelationEdgeStyle;startArrow=none;endArrow=none;segment=10;curved=1;sourcePerimeterSpacing=0;targetPerimeterSpacing=0;rounded=0;strokeColor=#97D077;strokeWidth=4;" edge="1" parent="1">
          <mxGeometry relative="1" as="geometry">
            <mxPoint x="572" y="180" as="sourcePoint" />
            <mxPoint x="612" y="100" as="targetPoint" />
          </mxGeometry>
        </mxCell>
        <mxCell id="Jpet9I2pC73P3KAdQ3ND-45" value="" style="edgeStyle=entityRelationEdgeStyle;startArrow=none;endArrow=none;segment=10;curved=1;sourcePerimeterSpacing=0;targetPerimeterSpacing=0;rounded=0;exitX=1;exitY=1;exitDx=0;exitDy=0;strokeColor=#97D077;strokeWidth=4;fillColor=#60a917;" edge="1" parent="1">
          <mxGeometry relative="1" as="geometry">
            <mxPoint x="322" y="100" as="sourcePoint" />
            <mxPoint x="362" y="180" as="targetPoint" />
            <Array as="points">
              <mxPoint x="265" y="-10" />
            </Array>
          </mxGeometry>
        </mxCell>
        <mxCell id="Jpet9I2pC73P3KAdQ3ND-51" value="" style="edgeStyle=entityRelationEdgeStyle;startArrow=none;endArrow=none;segment=10;curved=1;sourcePerimeterSpacing=0;targetPerimeterSpacing=0;rounded=0;exitX=1;exitY=1;exitDx=0;exitDy=0;strokeColor=#0e8088;strokeWidth=4;fillColor=#b0e3e6;" edge="1" parent="1">
          <mxGeometry relative="1" as="geometry">
            <mxPoint x="360" y="180" as="sourcePoint" />
            <mxPoint x="400" y="240" as="targetPoint" />
            <Array as="points">
              <mxPoint x="303" y="70" />
            </Array>
          </mxGeometry>
        </mxCell>
        <mxCell id="Jpet9I2pC73P3KAdQ3ND-58" value="" style="edgeStyle=entityRelationEdgeStyle;startArrow=none;endArrow=none;segment=10;curved=1;sourcePerimeterSpacing=0;targetPerimeterSpacing=0;rounded=0;strokeColor=#b46504;strokeWidth=4;fillColor=#fad7ac;" edge="1" parent="1">
          <mxGeometry relative="1" as="geometry">
            <mxPoint x="438" y="330" as="sourcePoint" />
            <mxPoint x="493" y="240" as="targetPoint" />
            <Array as="points">
              <mxPoint x="418" y="190" />
            </Array>
          </mxGeometry>
        </mxCell>
        <mxCell id="Jpet9I2pC73P3KAdQ3ND-59" value="" style="edgeStyle=entityRelationEdgeStyle;startArrow=none;endArrow=none;segment=10;curved=1;sourcePerimeterSpacing=0;targetPerimeterSpacing=0;rounded=0;exitX=1;exitY=1;exitDx=0;exitDy=0;strokeColor=#b46504;strokeWidth=4;fillColor=#fad7ac;" edge="1" parent="1">
          <mxGeometry relative="1" as="geometry">
            <mxPoint x="235.5" y="240" as="sourcePoint" />
            <mxPoint x="279" y="330" as="targetPoint" />
            <Array as="points">
              <mxPoint x="178.5" y="130" />
              <mxPoint x="135.5" y="330" />
            </Array>
          </mxGeometry>
        </mxCell>
        <mxCell id="Jpet9I2pC73P3KAdQ3ND-60" value="" style="endArrow=none;html=1;rounded=0;strokeColor=#b46504;strokeWidth=4;fillColor=#fad7ac;" edge="1" parent="1">
          <mxGeometry width="50" height="50" relative="1" as="geometry">
            <mxPoint x="279" y="330" as="sourcePoint" />
            <mxPoint x="438" y="330" as="targetPoint" />
          </mxGeometry>
        </mxCell>
        <mxCell id="Jpet9I2pC73P3KAdQ3ND-30" value="" style="edgeStyle=entityRelationEdgeStyle;startArrow=none;endArrow=none;segment=10;curved=1;sourcePerimeterSpacing=0;targetPerimeterSpacing=0;rounded=0;strokeColor=#990099;strokeWidth=4;" edge="1" parent="1">
          <mxGeometry relative="1" as="geometry">
            <mxPoint x="339" y="300" as="sourcePoint" />
            <mxPoint x="374" y="240" as="targetPoint" />
            <Array as="points">
              <mxPoint x="299" y="190" />
            </Array>
          </mxGeometry>
        </mxCell>
        <mxCell id="Jpet9I2pC73P3KAdQ3ND-42" value="" style="edgeStyle=entityRelationEdgeStyle;startArrow=none;endArrow=none;segment=10;curved=1;sourcePerimeterSpacing=0;targetPerimeterSpacing=0;rounded=0;exitX=1;exitY=1;exitDx=0;exitDy=0;strokeColor=#990099;strokeWidth=4;fillColor=#60a917;" edge="1" parent="1">
          <mxGeometry relative="1" as="geometry">
            <mxPoint x="250" y="240" as="sourcePoint" />
            <mxPoint x="290" y="300" as="targetPoint" />
            <Array as="points">
              <mxPoint x="193" y="130" />
              <mxPoint x="150" y="330" />
            </Array>
          </mxGeometry>
        </mxCell>
        <mxCell id="Jpet9I2pC73P3KAdQ3ND-43" value="" style="endArrow=none;html=1;rounded=0;strokeColor=#990099;strokeWidth=4;" edge="1" parent="1">
          <mxGeometry width="50" height="50" relative="1" as="geometry">
            <mxPoint x="289" y="300" as="sourcePoint" />
            <mxPoint x="339" y="300" as="targetPoint" />
          </mxGeometry>
        </mxCell>
        <mxCell id="Jpet9I2pC73P3KAdQ3ND-54" value="" style="edgeStyle=entityRelationEdgeStyle;startArrow=none;endArrow=none;segment=10;curved=1;sourcePerimeterSpacing=0;targetPerimeterSpacing=0;rounded=0;strokeColor=#FFD966;strokeWidth=4;" edge="1" parent="1">
          <mxGeometry relative="1" as="geometry">
            <mxPoint x="422" y="270" as="sourcePoint" />
            <mxPoint x="452" y="240" as="targetPoint" />
            <Array as="points">
              <mxPoint x="377" y="190" />
            </Array>
          </mxGeometry>
        </mxCell>
        <mxCell id="Jpet9I2pC73P3KAdQ3ND-55" value="" style="edgeStyle=entityRelationEdgeStyle;startArrow=none;endArrow=none;segment=10;curved=1;sourcePerimeterSpacing=0;targetPerimeterSpacing=0;rounded=0;exitX=1;exitY=1;exitDx=0;exitDy=0;strokeColor=#FFD966;strokeWidth=4;fillColor=#60a917;" edge="1" parent="1">
          <mxGeometry relative="1" as="geometry">
            <mxPoint x="282" y="240" as="sourcePoint" />
            <mxPoint x="322" y="270" as="targetPoint" />
            <Array as="points">
              <mxPoint x="225" y="130" />
              <mxPoint x="182" y="330" />
              <mxPoint x="322" y="270" />
            </Array>
          </mxGeometry>
        </mxCell>
        <mxCell id="Jpet9I2pC73P3KAdQ3ND-56" value="" style="endArrow=none;html=1;rounded=0;strokeColor=#FFD966;strokeWidth=4;" edge="1" parent="1">
          <mxGeometry width="50" height="50" relative="1" as="geometry">
            <mxPoint x="322" y="270" as="sourcePoint" />
            <mxPoint x="422" y="270" as="targetPoint" />
          </mxGeometry>
        </mxCell>
      </root>
    </mxGraphModel>
  </diagram>
</mxfile>
